<mxfile host="app.diagrams.net" modified="2023-12-12T00:44:48.234Z" agent="Mozilla/5.0 (Windows NT 10.0; Win64; x64) AppleWebKit/537.36 (KHTML, like Gecko) Chrome/120.0.0.0 Safari/537.36" version="22.1.7" etag="sIt6mFT6pm46xys1afPq" type="github">
  <diagram name="Halaman-1" id="Lp4EbDe87D_LCTBgd40v">
    <mxGraphModel>
      <root>
        <mxCell id="0" />
        <mxCell id="1" parent="0" />
      </root>
    </mxGraphModel>
  </diagram>
</mxfile>
